#!OML:ASF H:\MichaelJackson\Top Level 1\Subject 1\Session 1\male.ASF
:FULLY-SPECIFIED
:DEGREES
453
root 16.2808 15.6197 -15.5369 11.0935 1.74458 5.80507
lowerback -0.143963 2.49841 3.49546
upperback -2.49627 3.24803 -11.1137
thorax -1.68947 1.50092 -14.1174
lowerneck -7.80142 -4.39625 15.4862
upperneck 4.39345 -7.53906 1.5284
head 2.28413 -3.41488 -2.48933
rclavicle -2.48481e-014 1.27222e-014
rhumerus -17.696 -28.2337 -4.98115
rradius 72.8575
rwrist -24.8739
rhand -46.2035 -76.8415
rfingers 7.12502
rthumb -18.9414 105.939
lclavicle -2.48481e-014 1.27222e-014
lhumerus -63.5788 -47.9226 112.469
lradius 52.6749
lwrist 13.5664
lhand 31.3341 22.2717
lfingers 7.12502
lthumb 54.9022 40.4808
rfemur -33.4042 -20.96 -0.495492
rtibia 59.8572
rfoot -22.1218 -0.844574
rtoes -44.373
lfemur -3.75658 -11.4879 -2.35008
ltibia 18.1728
lfoot -30.3996 -7.73216
ltoes -9.36161
454
root 16.2517 15.6122 -15.5412 11.2499 1.75678 5.40468
lowerback -0.0494732 2.50668 3.76933
upperback -2.51233 3.26227 -10.7887
thorax -1.75957 1.50039 -13.9051
lowerneck -7.74642 -4.33484 15.4608
upperneck 4.52585 -7.43785 1.26634
head 2.31832 -3.36623 -2.57388
rclavicle 3.45885e-014 -9.54166e-015
rhumerus -17.8688 -29.8213 -5.68803
rradius 75.4359
rwrist -26.2517
rhand -47.8832 -78.9304
rfingers 7.12502
rthumb -20.5562 107.862
lclavicle 3.45885e-014 -9.54166e-015
lhumerus -62.7461 -47.3705 111.616
lradius 52.3916
lwrist 13.2514
lhand 29.2825 20.7898
lfingers 7.12502
lthumb 53.0608 40.2436
rfemur -33.6197 -21.6906 0.268436
rtibia 59.8208
rfoot -22.5137 -0.630194
rtoes -44.0514
lfemur -3.89828 -11.7609 -2.02425
ltibia 18.4436
lfoot -30.6685 -6.06969
ltoes -9.28149
455
root 16.2177 15.6112 -15.5448 11.4529 1.79824 4.94958
lowerback 0.0126164 2.50888 4.02742
upperback -2.5327 3.26948 -10.4272
thorax -1.82052 1.49693 -13.6393
lowerneck -7.71389 -4.25711 15.3975
upperneck 4.62907 -7.31597 1.05262
head 2.35142 -3.30795 -2.63513
rclavicle 3.77691e-015 2.38542e-014
rhumerus -18.3175 -30.4809 -6.40543
rradius 78.6074
rwrist -27.7499
rhand -48.5494 -75.8098
rfingers 7.12502
rthumb -21.1962 104.671
lclavicle 3.77691e-015 2.38542e-014
lhumerus -61.7907 -46.6916 110.601
lradius 52.1331
lwrist 12.7832
lhand 26.8112 19.2386
lfingers 7.12502
lthumb 50.8186 40.0207
rfemur -33.779 -22.2815 1.18746
rtibia 59.6105
rfoot -22.8147 -0.846482
rtoes -43.711
lfemur -4.23445 -11.795 -1.58258
ltibia 18.899
lfoot -30.8088 -4.73946
ltoes -9.04984
456
root 16.179 15.6178 -15.548 11.7075 1.84579 4.45273
lowerback 0.0379264 2.50467 4.26332
upperback -2.55723 3.26864 -10.0381
thorax -1.86976 1.49028 -13.3273
lowerneck -7.6985 -4.15385 15.3082
upperneck 4.69387 -7.15995 0.869815
head 2.3793 -3.23441 -2.68017
rclavicle 3.8763e-014 -1.00187e-013
rhumerus -18.9079 -30.1645 -7.23822
rradius 82.117
rwrist -28.7126
rhand -48.2416 -69.2986
rfingers 7.12502
rthumb -20.9005 98.1927
lclavicle 3.8763e-014 -1.00187e-013
lhumerus -60.7399 -45.8774 109.427
lradius 51.9166
lwrist 12.2377
lhand 23.8307 17.587
lfingers 7.12502
lthumb 48.0855 39.7598
rfemur -33.8945 -22.6976 2.2433
rtibia 59.2138
rfoot -23.0232 -1.44481
rtoes -43.2726
lfemur -4.76242 -11.5219 -1.04876
ltibia 19.5287
lfoot -30.7728 -3.70879
ltoes -8.87682
457
root 16.136 15.6309 -15.5511 11.993 1.87735 3.9411
lowerback 0.037208 2.49944 4.46826
upperback -2.57637 3.26682 -9.64187
thorax -1.90072 1.48494 -12.9884
lowerneck -7.696 -4.02385 15.2158
upperneck 4.71584 -6.96851 0.699583
head 2.39849 -3.14548 -2.71885
rclavicle -2.20651e-014 -3.65764e-014
rhumerus -19.5233 -28.9972 -8.24981
rradius 85.722
rwrist -28.5784
rhand -46.9421 -62.1382
rfingers 7.12502
rthumb -19.6516 91.1649
lclavicle -2.20651e-014 -3.65764e-014
lhumerus -59.6469 -44.9539 108.122
lradius 51.7564
lwrist 11.7083
lhand 20.3219 15.9276
lfingers 7.12502
lthumb 44.8348 39.492
rfemur -33.9459 -22.9132 3.38256
rtibia 58.6183
rfoot -23.1631 -2.39914
rtoes -42.7529
lfemur -5.43412 -10.9245 -0.47094
ltibia 20.3291
lfoot -30.5633 -2.98787
ltoes -8.54543
458
root 16.089 15.6509 -15.5546 12.3055 1.88359 3.43233
lowerback 0.0126149 2.50052 4.64235
upperback -2.58443 3.27373 -9.25907
thorax -1.90507 1.48647 -12.647
lowerneck -7.7101 -3.87277 15.1559
upperneck 4.69539 -6.75221 0.520305
head 2.40738 -3.04643 -2.7653
rclavicle -5.50634e-014 7.63333e-014
rhumerus -20.1001 -27.1396 -9.47413
rradius 89.2574
rwrist -27.1572
rhand -45.0311 -56.0782
rfingers 7.12502
rthumb -17.8136 -85.2823
lclavicle -5.50634e-014 7.63333e-014
lhumerus -58.586 -43.9828 106.728
lradius 51.6897
lwrist 11.3181
lhand 16.2206 14.2573
lfingers 7.12502
lthumb 40.9993 39.1739
rfemur -33.9231 -22.899 4.56096
rtibia 57.8144
rfoot -23.2448 -3.66977
rtoes -42.1941
lfemur -6.2319 -9.9928 0.113315
ltibia 21.2836
lfoot -30.1341 -2.5111
ltoes -8.26279
459
root 16.0384 15.6783 -15.5587 12.6236 1.85833 2.9484
lowerback -0.0118128 2.51159 4.7894
upperback -2.57606 3.29415 -8.91433
thorax -1.88825 1.49701 -12.3348
lowerneck -7.73826 -3.70632 15.1487
upperneck 4.64121 -6.52089 0.331283
head 2.40744 -2.94118 -2.82382
rclavicle 1.23246e-014 -5.08889e-014
rhumerus -20.6165 -24.7823 -10.9271
rradius 92.702
rwrist -24.8967
rhand -42.94 -51.5027
rfingers 7.12502
rthumb -15.8006 -80.8778
lclavicle 1.23246e-014 -5.08889e-014
lhumerus -57.6071 -43.0178 105.277
lradius 51.7188
lwrist 11.1675
lhand 11.6846 12.6443
lfingers 7.12502
lthumb 36.7223 38.78
rfemur -33.786 -22.6136 5.70355
rtibia 56.8052
rfoot -23.2865 -5.1754
rtoes -41.6394
lfemur -7.13076 -8.73111 0.650358
ltibia 22.3876
lfoot -29.4548 -2.16949
ltoes -8.16744
460
root 15.9845 15.7129 -15.5642 12.9313 1.80138 2.49864
lowerback -0.0252529 2.53728 4.903
upperback -2.5388 3.33467 -8.61154
thorax -1.84196 1.52084 -12.0519
lowerneck -7.81506 -3.53584 15.1986
upperneck 4.58359 -6.29714 0.117494
head 2.41338 -2.83936 -2.90333
rclavicle 8.18993e-014 -1.24042e-013
rhumerus -21.0831 -22.1201 -12.5948
rradius 96.1117
rwrist -22.3646
rhand -40.8374 -47.8637
rfingers 7.12502
rthumb -13.7749 -77.3877
lclavicle 8.18993e-014 -1.24042e-013
lhumerus -56.717 -42.1065 103.807
lradius 51.8277
lwrist 11.3255
lhand 6.79068 11.0761
lfingers 7.12502
lthumb 32.0764 38.2667
rfemur -33.5284 -22.0092 6.74724
rtibia 55.6166
rfoot -23.2693 -6.76451
rtoes -41.0495
lfemur -8.11949 -7.20253 1.10953
ltibia 23.6676
lfoot -28.5226 -1.85774
ltoes -8.37128
461
root 15.9278 15.754 -15.5721 13.2206 1.72049 2.08743
lowerback -0.00166528 2.57385 4.99106
upperback -2.47416 3.3904 -8.35151
thorax -1.78348 1.55428 -11.8048
lowerneck -7.93215 -3.3666 15.275
upperneck 4.52377 -6.08496 -0.0985852
head 2.42529 -2.74278 -2.9904
rclavicle 3.61788e-014 -6.36111e-015
rhumerus -21.5169 -19.3262 -14.4754
rradius 99.5338
rwrist -19.9286
rhand -38.6217 -44.6253
rfingers 7.12502
rthumb -11.6388 -74.282
lclavicle 3.61788e-014 -6.36111e-015
lhumerus -55.8929 -41.2526 102.335
lradius 51.9893
lwrist 11.8326
lhand 1.77926 9.55232
lfingers 7.12502
lthumb 27.2935 37.5969
rfemur -33.1632 -21.062 7.64885
rtibia 54.2926
rfoot -23.1678 -8.31922
rtoes -40.4166
lfemur -9.21225 -5.48726 1.46736
ltibia 25.1569
lfoot -27.3242 -1.41397
ltoes -8.99572
